<?xml version="1.0" standalone="no"?>
<!DOCTYPE svg PUBLIC "-//W3C//DTD SVG 1.1//EN" "http://www.w3.org/Graphics/SVG/1.1/DTD/svg11.dtd" >
<svg xmlns="http://www.w3.org/2000/svg" xmlns:xlink="http://www.w3.org/1999/xlink" version="1.1">
<metadata>
Created by FontForge 20201107 at Thu May 12 16:04:18 2016
 By Jimmy Wärting
(c) Copyright 2015 Chanel. All rights reserved.
</metadata>
<defs>
<font id="ABChanelPBRegularM" horiz-adv-x="1878" >
  <font-face 
    font-family="ABChanel PB Regular M"
    font-weight="400"
    font-stretch="normal"
    units-per-em="2048"
    panose-1="2 11 5 5 3 1 1 2 0 1"
    ascent="1434"
    descent="-614"
    x-height="1434"
    cap-height="1434"
    bbox="-172 -543 2957 1935"
    underline-thickness="0"
    underline-position="0"
    unicode-range="U+0020-FB02"
  />
<missing-glyph horiz-adv-x="748" 
d="M68 0v1365h544v-1365h-544zM136 68h408v1229h-408v-1229z" />
    <glyph glyph-name=".notdef" horiz-adv-x="748" 
d="M68 0v1365h544v-1365h-544zM136 68h408v1229h-408v-1229z" />
    <glyph glyph-name="glyph1" horiz-adv-x="0" 
 />
    <glyph glyph-name="glyph1" horiz-adv-x="0" 
 />
    <glyph glyph-name="glyph2" horiz-adv-x="682" 
 />
    <glyph glyph-name="space" unicode=" " horiz-adv-x="735" 
 />
    <glyph glyph-name="exclam" unicode="!" horiz-adv-x="735" 
d="M236 0v264h264v-264h-264zM244 1434h250l-11 -977h-229z" />
    <glyph glyph-name="quotedbl" unicode="&#x22;" horiz-adv-x="1091" 
d="M209 1434h244l-11 -471h-225zM639 1434h244l-11 -471h-225z" />
    <glyph glyph-name="numbersign" unicode="#" horiz-adv-x="1593" 
d="M166 389v191h231l72 317h-188v190h231l82 363h201l-82 -363h366l82 363h201l-82 -363h197v-190h-240l-72 -317h197v-191h-240l-86 -389h-200l86 389h-367l-86 -389h-201l86 389h-188zM598 580h367l71 317h-366z" />
    <glyph glyph-name="dollar" unicode="$" horiz-adv-x="1554" 
d="M154 238l178 143q66 -82 163.5 -121t227.5 -49v430l-16 2q-87 10 -153 23.5t-135 42t-113.5 68t-72.5 103t-28 146.5q0 169 138.5 277.5t379.5 123.5v132h164v-134q311 -20 502 -202l-172 -144q-117 123 -330 140v-375l51 -6q82 -11 148 -27.5t129 -47t105 -72t67.5 -104
t25.5 -141.5q0 -202 -143 -314t-383 -126v-139h-164v139q-385 18 -569 232zM434 1038q0 -35 10.5 -60t40.5 -48t88.5 -40t149.5 -28v359q-139 -9 -214 -60t-75 -123zM887 211q140 11 218.5 67t78.5 148q0 43 -17.5 76t-43 52.5t-68.5 33.5t-78.5 20.5t-89.5 12.5v-410z" />
    <glyph glyph-name="percent" unicode="%" horiz-adv-x="1734" 
d="M129 1139q0 129 92.5 219t227.5 90q132 0 223.5 -90t91.5 -219q0 -131 -91.5 -222.5t-221.5 -91.5q-137 0 -229.5 91.5t-92.5 222.5zM164 -10l1147 1454h250l-1147 -1454h-250zM303 1139q0 -62 40 -103t106 -41q62 0 102.5 41.5t40.5 102.5q0 62 -40 101.5t-103 39.5
q-64 0 -105 -39.5t-41 -101.5zM971 297q0 129 92 219t227 90q132 0 224 -90t92 -219q0 -130 -91.5 -221.5t-222.5 -91.5q-137 0 -229 91t-92 222zM1145 297q0 -62 39.5 -102.5t105.5 -40.5q62 0 103 41t41 102q0 62 -40.5 101.5t-103.5 39.5q-64 0 -104.5 -39.5
t-40.5 -101.5z" />
    <glyph glyph-name="ampersand" unicode="&#x26;" horiz-adv-x="1683" 
d="M156 373q0 255 381 434q-179 183 -179 332q0 105 58 179t149.5 108t206.5 34q199 0 314.5 -86.5t115.5 -220.5q0 -66 -27 -123t-78 -103.5t-107.5 -81.5t-131.5 -71l352 -348q68 103 115 252h223q-54 -225 -196 -393l288 -285h-288l-146 143q-223 -170 -495 -170
q-124 0 -222.5 24.5t-159.5 64t-101 93t-56 107.5t-16 111zM391 397q0 -46 17 -86t53.5 -74.5t103 -54.5t156.5 -20q206 0 352 114l-414 410q-64 -29 -107 -55t-82.5 -60.5t-59 -77.5t-19.5 -96zM567 1153q0 -55 38.5 -110t129.5 -148q54 24 82.5 38t68 38t59 46t34 53.5
t14.5 68.5q0 75 -61 120.5t-160 45.5q-89 0 -147 -42.5t-58 -109.5z" />
    <glyph glyph-name="quotesingle" unicode="'" horiz-adv-x="661" 
d="M209 1434h244l-11 -471h-225z" />
    <glyph glyph-name="parenleft" unicode="(" horiz-adv-x="663" 
d="M176 725q0 242 52.5 455t166.5 424h174q-88 -225 -123.5 -431.5t-35.5 -447.5q0 -239 35.5 -451.5t123.5 -435.5h-174q-219 409 -219 887z" />
    <glyph glyph-name="parenright" unicode=")" horiz-adv-x="663" 
d="M94 -162q88 224 124 436.5t36 450.5q0 240 -35.5 446.5t-124.5 432.5h174q114 -211 166.5 -424t52.5 -455q0 -478 -219 -887h-174z" />
    <glyph glyph-name="asterisk" unicode="*" horiz-adv-x="1003" 
d="M135 1104l53 172l236 -86l-8 244h178l-8 -242l227 82l55 -168l-235 -70l153 -194l-143 -107l-139 203l-139 -207l-146 105l156 198z" />
    <glyph glyph-name="plus" unicode="+" horiz-adv-x="1417" 
d="M168 393v207h432v383h217v-383h432v-207h-432v-393h-217v393h-432z" />
    <glyph glyph-name="comma" unicode="," horiz-adv-x="557" 
d="M4 -362l131 602h264l-213 -602h-182z" />
    <glyph glyph-name="hyphen" unicode="-" horiz-adv-x="1026" 
d="M160 606v240h706v-240h-706z" />
    <glyph glyph-name="period" unicode="." horiz-adv-x="557" 
d="M145 0v264h265v-264h-265z" />
    <glyph glyph-name="slash" unicode="/" horiz-adv-x="1443" 
d="M23 -102l1142 1634h256l-1142 -1634h-256z" />
    <glyph glyph-name="zero" unicode="0" horiz-adv-x="1640" 
d="M195 719q0 341 168.5 541t457.5 200q286 0 455.5 -198.5t169.5 -542.5q0 -341 -168.5 -543.5t-456.5 -202.5q-292 0 -459 201t-167 545zM422 719q0 -252 104 -389t295 -137q188 0 293 138.5t105 387.5q0 245 -105.5 383.5t-294.5 138.5q-187 0 -292 -139t-105 -383z" />
    <glyph glyph-name="one" unicode="1" horiz-adv-x="882" 
d="M156 1022v217q207 43 254 195h206v-1434h-231v1098q-78 -66 -229 -76z" />
    <glyph glyph-name="two" unicode="2" horiz-adv-x="1409" 
d="M141 0v188q129 216 527 463q164 102 233.5 179t69.5 186q0 104 -70 166.5t-190 62.5q-115 0 -190 -61.5t-95 -188.5l-219 52q26 184 156 298.5t348 114.5q225 0 359 -118.5t134 -319.5q0 -61 -10.5 -113t-34.5 -97.5t-53 -83t-76 -78t-92 -73t-113 -77.5
q-141 -92 -226 -156.5t-138 -130.5h760v-213h-1080z" />
    <glyph glyph-name="three" unicode="3" horiz-adv-x="1486" 
d="M156 307l213 99q69 -222 366 -222q164 0 251 60.5t87 167.5q0 152 -166 194q-76 19 -272 19q-86 0 -129 -2v208q66 -2 190 -2q125 0 189 21q145 50 145 194q0 103 -79 154t-218 51q-261 0 -305 -229l-213 59q39 181 173 281t349 100q237 0 372.5 -111.5t135.5 -299.5
q0 -95 -44.5 -173t-123.5 -122q117 -56 169 -138t52 -202q0 -207 -148 -324t-413 -117q-228 0 -373.5 80.5t-207.5 253.5z" />
    <glyph glyph-name="four" unicode="4" horiz-adv-x="1488" 
d="M113 270v189l796 975h256v-951h183v-213h-183v-270h-223v270h-829zM391 483h551v684z" />
    <glyph glyph-name="five" unicode="5" horiz-adv-x="1505" 
d="M197 289l209 94q106 -203 360 -203q150 0 239 80.5t89 208.5q0 130 -81.5 207.5t-234.5 77.5q-195 0 -315 -138l-209 66l65 752h908v-215h-721l-31 -359q135 98 324 98q245 0 383.5 -134t138.5 -353q0 -225 -151.5 -361.5t-413.5 -136.5q-392 0 -559 316z" />
    <glyph glyph-name="six" unicode="6" horiz-adv-x="1536" 
d="M195 717q0 345 158.5 544t455.5 199q180 0 315 -77.5t203 -225.5l-199 -94q-98 186 -327 186q-94 0 -166.5 -35t-116.5 -95.5t-67 -132.5t-27 -155q65 63 161.5 97.5t202.5 34.5q262 0 404.5 -131t142.5 -355q0 -217 -149.5 -360.5t-397.5 -143.5q-593 0 -593 744z
M442 473q0 -134 89 -211.5t243 -77.5q157 0 243.5 76t86.5 213q0 133 -86.5 207t-243.5 74q-155 0 -243.5 -74.5t-88.5 -206.5z" />
    <glyph glyph-name="seven" unicode="7" horiz-adv-x="1292" 
d="M137 1210v224h1073v-211q-146 -139 -255 -278t-188.5 -290.5t-135 -305.5t-103.5 -349h-268q98 363 248 646t410 564h-781z" />
    <glyph glyph-name="eight" unicode="8" horiz-adv-x="1554" 
d="M199 410q0 122 61.5 212.5t177.5 141.5q-83 43 -127.5 119t-44.5 178q0 178 141.5 288.5t370.5 110.5q226 0 368 -110t142 -283q0 -210 -172 -303q240 -111 240 -350q0 -207 -152 -324t-426 -117q-275 0 -427 115.5t-152 321.5zM430 414q0 -114 93 -177t255 -63
q164 0 255 62.5t91 173.5q0 115 -89 182t-257 67q-164 0 -256 -64.5t-92 -180.5zM487 1053q0 -97 78 -150t211 -53q135 0 214 54.5t79 146.5q0 97 -78.5 153t-214.5 56q-132 0 -210.5 -55.5t-78.5 -151.5z" />
    <glyph glyph-name="nine" unicode="9" horiz-adv-x="1536" 
d="M201 963q0 103 38.5 194t108 158t173 106t227.5 39q593 0 593 -743q0 -345 -158.5 -544.5t-455.5 -199.5q-181 0 -315.5 77t-202.5 224l201 97q85 -187 325 -187q121 0 208 60t128 156.5t41 215.5q-65 -63 -161.5 -97t-202.5 -34q-263 0 -405 127.5t-142 350.5zM432 967
q0 -131 85.5 -201t244.5 -70q157 0 244.5 70t87.5 201q0 134 -88.5 208t-243.5 74q-157 0 -243.5 -73.5t-86.5 -208.5z" />
    <glyph glyph-name="colon" unicode=":" horiz-adv-x="557" 
d="M145 0v264h265v-264h-265zM145 737v264h265v-264h-265z" />
    <glyph glyph-name="semicolon" unicode=";" horiz-adv-x="557" 
d="M4 -362l131 602h264l-213 -602h-182zM133 737v264h264v-264h-264z" />
    <glyph glyph-name="less" unicode="&#x3c;" horiz-adv-x="1417" 
d="M199 356v260l966 373v-237l-741 -265l741 -268v-235z" />
    <glyph glyph-name="equal" unicode="=" horiz-adv-x="1417" 
d="M209 147v215h999v-215h-999zM209 614v215h999v-215h-999z" />
    <glyph glyph-name="greater" unicode="&#x3e;" horiz-adv-x="1417" 
d="M252 -16v237l739 266l-739 267v235l967 -373v-260z" />
    <glyph glyph-name="question" unicode="?" horiz-adv-x="1306" 
d="M47 1057q120 403 610 403q133 0 237 -31t168 -86t97 -125.5t33 -152.5q0 -137 -65.5 -217.5t-221.5 -159.5q-53 -27 -83.5 -46t-58.5 -46t-41 -60.5t-17 -78.5h-230q0 142 58 227t206 160q133 67 177.5 108t44.5 111q0 31 -15.5 60.5t-49 57t-98 44t-151.5 16.5
q-137 0 -238.5 -57t-140.5 -185zM455 0v264h264v-264h-264z" />
    <glyph glyph-name="at" unicode="@" horiz-adv-x="1808" 
d="M172 715q0 154 56.5 291t156.5 237t244.5 158.5t312.5 58.5q157 0 291.5 -44t231.5 -123.5t152.5 -197t55.5 -257.5q0 -87 -26 -171t-74 -153.5t-125 -112.5t-170 -43q-79 0 -137 39t-76 115q-53 -79 -114.5 -117.5t-139.5 -38.5q-125 0 -205 78t-80 225q0 89 23.5 165
t62.5 127t88.5 87.5t101 53t101.5 16.5q96 0 150.5 -42t83.5 -126l37 139h167l-112 -424q-6 -27 -6 -47q0 -38 22.5 -55.5t59.5 -17.5q80 0 139 74t59 216q0 225 -153 342t-412 117q-266 0 -424 -156.5t-158 -414.5q0 -265 162.5 -415.5t442.5 -150.5q240 0 415 127
l119 -124q-103 -88 -248 -132.5t-289 -44.5q-236 0 -415 94.5t-275 262.5t-96 385zM719 698q0 -76 40 -125t115 -49q90 0 148.5 76.5t58.5 173.5q0 70 -41 117t-120 47q-88 0 -144.5 -66.5t-56.5 -173.5z" />
    <glyph glyph-name="A" unicode="A" horiz-adv-x="1660" 
d="M12 0l660 1434h317l660 -1434h-254l-144 309h-852l-141 -309h-246zM500 530h651l-326 709z" />
    <glyph glyph-name="B" unicode="B" horiz-adv-x="1695" 
d="M266 0v1434h713q148 0 254 -50q98 -43 154.5 -130t56.5 -212q0 -164 -125 -274q85 -43 144 -130t59 -216q0 -149 -76 -247.5t-205 -141.5q-87 -30 -221 -33h-754zM487 215h531q129 0 201.5 46.5t72.5 158.5q0 110 -68 156.5t-200 46.5h-537v-408zM487 838h486
q126 0 183.5 45.5t57.5 144.5q0 104 -65.5 147.5t-183.5 43.5h-478v-381z" />
    <glyph glyph-name="C" unicode="C" horiz-adv-x="1742" 
d="M172 719q0 156 57.5 293.5t158.5 235.5t244 155t308 57q232 0 410 -103t268 -284l-197 -112q-65 129 -186 204.5t-293 75.5q-160 0 -285 -69.5t-191.5 -188t-66.5 -264.5q0 -110 38 -206t107 -167t172 -112t226 -41q349 0 492 309l198 -105q-82 -199 -268.5 -311.5
t-423.5 -112.5q-219 0 -394.5 95.5t-274.5 266t-99 384.5z" />
    <glyph glyph-name="D" unicode="D" horiz-adv-x="1814" 
d="M266 0v1434h647q222 0 392 -101q159 -91 248 -254.5t89 -365.5q0 -218 -101 -386t-279 -253q-154 -74 -340 -74h-656zM494 217h417q153 0 279 74q106 64 165.5 172.5t59.5 247.5q0 144 -57.5 257t-165.5 177q-120 69 -291 69h-407v-997z" />
    <glyph glyph-name="E" unicode="E" horiz-adv-x="1617" 
d="M266 0v1434h1135v-217h-909v-371h796v-213h-796v-418h938v-215h-1164z" />
    <glyph glyph-name="F" unicode="F" horiz-adv-x="1456" 
d="M266 0v1434h1114v-220h-888v-403h774v-219h-774v-592h-226z" />
    <glyph glyph-name="G" unicode="G" horiz-adv-x="1812" 
d="M172 719q0 156 58 293.5t159 235.5t245 155t310 57q203 0 376 -83.5t277 -252.5l-192 -116q-71 115 -192 174t-265 59q-122 0 -225.5 -40.5t-174 -110.5t-110 -166t-39.5 -205q0 -164 77.5 -285t207.5 -181t295 -60q111 0 220.5 32t191.5 97v206h-527v211h746v-540
q-270 -226 -633 -226q-173 0 -321 53t-255 149t-168 236t-61 308z" />
    <glyph glyph-name="H" unicode="H" horiz-adv-x="1839" 
d="M266 0v1434h230v-586h847v586h230v-1434h-230v629h-847v-629h-230z" />
    <glyph glyph-name="I" unicode="I" horiz-adv-x="774" 
d="M266 0v1434h242v-1434h-242z" />
    <glyph glyph-name="J" unicode="J" horiz-adv-x="1558" 
d="M82 469l225 70q28 -166 132.5 -254t269.5 -88q171 0 269 88t99 247v902h230v-904q0 -173 -79.5 -300.5t-214 -192t-304.5 -64.5q-251 0 -422 136t-205 360z" />
    <glyph glyph-name="K" unicode="K" horiz-adv-x="1583" 
d="M266 0v1434h226v-609l679 609h336l-680 -600l752 -834h-311l-611 684l-165 -145v-539h-226z" />
    <glyph glyph-name="L" unicode="L" horiz-adv-x="1384" 
d="M266 0v1434h230v-1211h847v-223h-1077z" />
    <glyph glyph-name="M" unicode="M" horiz-adv-x="2254" 
d="M266 0v1434h365l497 -1096l500 1096h361v-1434h-222v1212l-557 -1212h-168l-555 1210v-1210h-221z" />
    <glyph glyph-name="N" unicode="N" horiz-adv-x="1880" 
d="M266 0v1434h277l846 -1012v1012h225v-1434h-162l-960 1149v-1149h-226z" />
    <glyph glyph-name="O" unicode="O" 
d="M172 719q0 157 57.5 294.5t158.5 235.5t244 154.5t308 56.5q219 0 394 -95.5t273.5 -265t98.5 -380.5q0 -158 -57.5 -296.5t-158.5 -237.5t-244 -155.5t-308 -56.5q-163 0 -305 56t-243.5 154.5t-159.5 237t-58 298.5zM399 719q0 -110 37.5 -206t106 -167t171 -112
t226.5 -41q161 0 285 70.5t189 189.5t65 266q0 144 -65 262t-189.5 189t-286.5 71q-161 0 -285 -70.5t-189 -188.5t-65 -263z" />
    <glyph glyph-name="P" unicode="P" horiz-adv-x="1646" 
d="M266 0v1434h735q144 0 244 -33q143 -50 219 -161.5t76 -274.5q0 -114 -40 -201.5t-113 -141.5t-169 -81t-212 -27h-514v-514h-226zM492 729h493q106 0 162 19q168 49 168 229t-160 223q-67 17 -184 17h-479v-488z" />
    <glyph glyph-name="Q" unicode="Q" 
d="M172 719q0 157 57.5 294.5t158.5 235.5t244 154.5t308 56.5q219 0 394 -95.5t273.5 -265t98.5 -380.5q0 -164 -63.5 -305.5t-178.5 -243.5l226 -229h-295l-109 110q-159 -78 -348 -78q-163 0 -305 56t-243.5 154.5t-159.5 237t-58 298.5zM399 719q0 -110 37.5 -206
t106 -167t171 -112t226.5 -41q102 0 184 24l-98 102l193 105l96 -100q164 149 164 395q0 144 -65 262t-189.5 189t-286.5 71q-161 0 -285 -70.5t-189 -188.5t-65 -263z" />
    <glyph glyph-name="R" unicode="R" horiz-adv-x="1730" 
d="M266 0v1434h746q230 0 364 -101q86 -66 134.5 -163.5t48.5 -206.5q0 -67 -17 -131t-52.5 -126.5t-100 -113.5t-150.5 -80l367 -512h-279l-338 473h-500v-473h-223zM489 688h519q158 0 242.5 70.5t84.5 202.5q0 162 -147 225q-76 31 -184 31h-515v-529z" />
    <glyph glyph-name="S" unicode="S" horiz-adv-x="1570" 
d="M158 221l178 150q147 -183 491 -183q177 0 274 64.5t97 169.5q0 39 -12.5 69.5t-38 50.5t-53 34t-69 23t-75 13.5t-80.5 8.5l-192 18q-76 8 -139.5 22t-128.5 43.5t-109.5 72t-73 109.5t-28.5 152q0 192 157.5 307t442.5 115q376 0 594 -221l-172 -149q-78 77 -181 115
t-256 38q-180 0 -268 -53t-88 -137q0 -55 23 -90t91 -61.5t187 -37.5l193 -18q88 -8 160.5 -25.5t138 -49.5t110 -77t70.5 -111t26 -149q0 -148 -80.5 -253.5t-217.5 -156.5t-316 -51q-430 0 -655 248z" />
    <glyph glyph-name="T" unicode="T" horiz-adv-x="1449" 
d="M70 1210v224h1310v-224h-540v-1210h-230v1210h-540z" />
    <glyph glyph-name="U" unicode="U" horiz-adv-x="1824" 
d="M252 686v748h229v-740q0 -146 19 -221q34 -138 128.5 -207t282.5 -69q189 0 284.5 68.5t129.5 205.5q18 81 18 223v740h230v-748q0 -197 -41 -321q-131 -392 -621 -392q-494 0 -624 398q-35 111 -35 315z" />
    <glyph glyph-name="V" unicode="V" horiz-adv-x="1681" 
d="M20 1434h259l565 -1235l565 1235h252l-662 -1434h-317z" />
    <glyph glyph-name="W" unicode="W" horiz-adv-x="2484" 
d="M63 1434h242l404 -1137l401 1137h266l404 -1137l403 1137h238l-512 -1434h-246l-422 1171l-420 -1171h-246z" />
    <glyph glyph-name="X" unicode="X" horiz-adv-x="1521" 
d="M29 0l592 756l-537 678h276l400 -512l397 512h281l-537 -684l588 -750h-275l-454 584l-455 -584h-276z" />
    <glyph glyph-name="Y" unicode="Y" horiz-adv-x="1583" 
d="M29 1434h305l461 -539l458 539h299l-645 -754v-680h-229v680z" />
    <glyph glyph-name="Z" unicode="Z" horiz-adv-x="1603" 
d="M166 0v205l946 1007h-897v222h1225v-207l-953 -1008h965v-219h-1286z" />
    <glyph glyph-name="bracketleft" unicode="[" horiz-adv-x="1021" 
d="M279 -162v1766h546v-232h-319v-1302h319v-232h-546z" />
    <glyph glyph-name="backslash" unicode="\" horiz-adv-x="1443" 
d="M23 1532h256l1142 -1634h-256z" />
    <glyph glyph-name="bracketright" unicode="]" horiz-adv-x="1021" 
d="M197 70h319v1302h-319v232h546v-1766h-546v232z" />
    <glyph glyph-name="asciicircum" unicode="^" horiz-adv-x="1417" 
d="M244 711l325 723h277l325 -723h-241l-223 540l-226 -540h-237z" />
    <glyph glyph-name="underscore" unicode="_" horiz-adv-x="1153" 
d="M12 -229h1129v-240h-1129v240z" />
    <glyph glyph-name="grave" unicode="`" horiz-adv-x="501" 
d="M-12 1819h321l209 -242h-305z" />
    <glyph glyph-name="a" unicode="a" horiz-adv-x="1660" 
d="M12 0l660 1434h317l660 -1434h-254l-144 309h-852l-141 -309h-246zM500 530h651l-326 709z" />
    <glyph glyph-name="b" unicode="b" horiz-adv-x="1695" 
d="M266 0v1434h713q148 0 254 -50q98 -43 154.5 -130t56.5 -212q0 -164 -125 -274q85 -43 144 -130t59 -216q0 -149 -76 -247.5t-205 -141.5q-87 -30 -221 -33h-754zM487 215h531q129 0 201.5 46.5t72.5 158.5q0 110 -68 156.5t-200 46.5h-537v-408zM487 838h486
q126 0 183.5 45.5t57.5 144.5q0 104 -65.5 147.5t-183.5 43.5h-478v-381z" />
    <glyph glyph-name="c" unicode="c" horiz-adv-x="1742" 
d="M172 719q0 156 57.5 293.5t158.5 235.5t244 155t308 57q232 0 410 -103t268 -284l-197 -112q-65 129 -186 204.5t-293 75.5q-160 0 -285 -69.5t-191.5 -188t-66.5 -264.5q0 -110 38 -206t107 -167t172 -112t226 -41q349 0 492 309l198 -105q-82 -199 -268.5 -311.5
t-423.5 -112.5q-219 0 -394.5 95.5t-274.5 266t-99 384.5z" />
    <glyph glyph-name="d" unicode="d" horiz-adv-x="1814" 
d="M266 0v1434h647q222 0 392 -101q159 -91 248 -254.5t89 -365.5q0 -218 -101 -386t-279 -253q-154 -74 -340 -74h-656zM494 217h417q153 0 279 74q106 64 165.5 172.5t59.5 247.5q0 144 -57.5 257t-165.5 177q-120 69 -291 69h-407v-997z" />
    <glyph glyph-name="e" unicode="e" horiz-adv-x="1617" 
d="M266 0v1434h1135v-217h-909v-371h796v-213h-796v-418h938v-215h-1164z" />
    <glyph glyph-name="f" unicode="f" horiz-adv-x="1456" 
d="M266 0v1434h1114v-220h-888v-403h774v-219h-774v-592h-226z" />
    <glyph glyph-name="g" unicode="g" horiz-adv-x="1812" 
d="M172 719q0 156 58 293.5t159 235.5t245 155t310 57q203 0 376 -83.5t277 -252.5l-192 -116q-71 115 -192 174t-265 59q-122 0 -225.5 -40.5t-174 -110.5t-110 -166t-39.5 -205q0 -164 77.5 -285t207.5 -181t295 -60q111 0 220.5 32t191.5 97v206h-527v211h746v-540
q-270 -226 -633 -226q-173 0 -321 53t-255 149t-168 236t-61 308z" />
    <glyph glyph-name="h" unicode="h" horiz-adv-x="1839" 
d="M266 0v1434h230v-586h847v586h230v-1434h-230v629h-847v-629h-230z" />
    <glyph glyph-name="i" unicode="i" horiz-adv-x="774" 
d="M266 0v1434h242v-1434h-242z" />
    <glyph glyph-name="j" unicode="j" horiz-adv-x="1558" 
d="M82 469l225 70q28 -166 132.5 -254t269.5 -88q171 0 269 88t99 247v902h230v-904q0 -173 -79.5 -300.5t-214 -192t-304.5 -64.5q-251 0 -422 136t-205 360z" />
    <glyph glyph-name="k" unicode="k" horiz-adv-x="1583" 
d="M266 0v1434h226v-609l679 609h336l-680 -600l752 -834h-311l-611 684l-165 -145v-539h-226z" />
    <glyph glyph-name="l" unicode="l" horiz-adv-x="1384" 
d="M266 0v1434h230v-1211h847v-223h-1077z" />
    <glyph glyph-name="m" unicode="m" horiz-adv-x="2254" 
d="M266 0v1434h365l497 -1096l500 1096h361v-1434h-222v1212l-557 -1212h-168l-555 1210v-1210h-221z" />
    <glyph glyph-name="n" unicode="n" horiz-adv-x="1880" 
d="M266 0v1434h277l846 -1012v1012h225v-1434h-162l-960 1149v-1149h-226z" />
    <glyph glyph-name="o" unicode="o" 
d="M172 719q0 157 57.5 294.5t158.5 235.5t244 154.5t308 56.5q219 0 394 -95.5t273.5 -265t98.5 -380.5q0 -158 -57.5 -296.5t-158.5 -237.5t-244 -155.5t-308 -56.5q-163 0 -305 56t-243.5 154.5t-159.5 237t-58 298.5zM399 719q0 -110 37.5 -206t106 -167t171 -112
t226.5 -41q161 0 285 70.5t189 189.5t65 266q0 144 -65 262t-189.5 189t-286.5 71q-161 0 -285 -70.5t-189 -188.5t-65 -263z" />
    <glyph glyph-name="p" unicode="p" horiz-adv-x="1646" 
d="M266 0v1434h735q144 0 244 -33q143 -50 219 -161.5t76 -274.5q0 -114 -40 -201.5t-113 -141.5t-169 -81t-212 -27h-514v-514h-226zM492 729h493q106 0 162 19q168 49 168 229t-160 223q-67 17 -184 17h-479v-488z" />
    <glyph glyph-name="q" unicode="q" 
d="M172 719q0 157 57.5 294.5t158.5 235.5t244 154.5t308 56.5q219 0 394 -95.5t273.5 -265t98.5 -380.5q0 -164 -63.5 -305.5t-178.5 -243.5l226 -229h-295l-109 110q-159 -78 -348 -78q-163 0 -305 56t-243.5 154.5t-159.5 237t-58 298.5zM399 719q0 -110 37.5 -206
t106 -167t171 -112t226.5 -41q102 0 184 24l-98 102l193 105l96 -100q164 149 164 395q0 144 -65 262t-189.5 189t-286.5 71q-161 0 -285 -70.5t-189 -188.5t-65 -263z" />
    <glyph glyph-name="r" unicode="r" horiz-adv-x="1730" 
d="M266 0v1434h746q230 0 364 -101q86 -66 134.5 -163.5t48.5 -206.5q0 -67 -17 -131t-52.5 -126.5t-100 -113.5t-150.5 -80l367 -512h-279l-338 473h-500v-473h-223zM489 688h519q158 0 242.5 70.5t84.5 202.5q0 162 -147 225q-76 31 -184 31h-515v-529z" />
    <glyph glyph-name="s" unicode="s" horiz-adv-x="1560" 
d="M158 217l178 150q80 -101 202 -140t289 -39q169 0 265 60t96 166q0 35 -10.5 63.5t-26 48t-44 35t-51.5 24.5t-63 16.5t-65.5 11t-69.5 8.5l-147 18q-87 10 -153 25t-135 44.5t-113.5 70.5t-72.5 107t-28 152q0 190 159 306t431 116q380 0 594 -217l-172 -149
q-72 79 -175 114t-262 35q-166 0 -256 -54t-90 -136q0 -39 12 -65.5t45 -51.5t99 -42.5t168 -29.5l180 -22q104 -13 183.5 -38.5t148.5 -71t106 -121t37 -177.5q0 -92 -29.5 -168t-83 -130t-128.5 -91t-166.5 -54.5t-196.5 -17.5q-447 0 -655 244z" />
    <glyph glyph-name="t" unicode="t" horiz-adv-x="1449" 
d="M70 1210v224h1310v-224h-540v-1210h-230v1210h-540z" />
    <glyph glyph-name="u" unicode="u" horiz-adv-x="1824" 
d="M252 686v748h229v-740q0 -146 19 -221q34 -138 128.5 -207t282.5 -69q189 0 284.5 68.5t129.5 205.5q18 81 18 223v740h230v-748q0 -197 -41 -321q-131 -392 -621 -392q-494 0 -624 398q-35 111 -35 315z" />
    <glyph glyph-name="v" unicode="v" horiz-adv-x="1681" 
d="M20 1434h259l565 -1235l565 1235h252l-662 -1434h-317z" />
    <glyph glyph-name="w" unicode="w" horiz-adv-x="2484" 
d="M63 1434h242l404 -1137l401 1137h266l404 -1137l403 1137h238l-512 -1434h-246l-422 1171l-420 -1171h-246z" />
    <glyph glyph-name="x" unicode="x" horiz-adv-x="1521" 
d="M29 0l592 756l-537 678h276l400 -512l397 512h281l-537 -684l588 -750h-275l-454 584l-455 -584h-276z" />
    <glyph glyph-name="y" unicode="y" horiz-adv-x="1583" 
d="M29 1434h305l461 -539l458 539h299l-645 -754v-680h-229v680z" />
    <glyph glyph-name="z" unicode="z" horiz-adv-x="1603" 
d="M166 0v205l946 1007h-897v222h1225v-207l-953 -1008h965v-219h-1286z" />
    <glyph glyph-name="braceleft" unicode="{" horiz-adv-x="1021" 
d="M279 -162v1766h546v-232h-319v-1302h319v-232h-546z" />
    <glyph glyph-name="bar" unicode="|" horiz-adv-x="759" 
d="M266 -102v1634h228v-1634h-228z" />
    <glyph glyph-name="braceright" unicode="}" horiz-adv-x="1021" 
d="M197 70h319v1302h-319v232h546v-1766h-546v232z" />
    <glyph glyph-name="asciitilde" unicode="~" horiz-adv-x="1417" 
d="M168 383v211q122 80 260 80q76 0 155.5 -21t135.5 -46.5t133 -46.5t149 -21q144 0 248 75v-211q-121 -79 -260 -79q-76 0 -155 21t-134.5 46.5t-132.5 46.5t-151 21q-80 0 -136 -18.5t-112 -57.5z" />
    <glyph glyph-name="uni00A0" unicode="&#xa0;" horiz-adv-x="735" 
 />
    <glyph glyph-name="exclamdown" unicode="&#xa1;" horiz-adv-x="729" 
d="M233 0l11 977h239l11 -977h-261zM236 1178v256h258v-256h-258z" />
    <glyph glyph-name="cent" unicode="&#xa2;" horiz-adv-x="1546" 
d="M207 602q0 227 143.5 389t372.5 191v135h158v-133q159 -13 281.5 -93t187.5 -210l-185 -103q-42 81 -114 134.5t-170 66.5v-760q204 26 295 223l184 -94q-59 -144 -186.5 -231.5t-292.5 -102.5v-147h-158v151q-229 29 -372.5 190t-143.5 394zM416 602q0 -143 82.5 -247.5
t224.5 -131.5v754q-140 -28 -223.5 -131t-83.5 -244z" />
    <glyph glyph-name="sterling" unicode="&#xa3;" horiz-adv-x="1511" 
d="M207 604v174h166q-36 70 -55 128.5t-19 129.5q0 196 143.5 310t380.5 114q441 0 537 -356l-232 -66q-14 46 -33.5 81t-54 67.5t-90 49.5t-129.5 17q-122 0 -198 -57.5t-76 -169.5q0 -42 13 -89.5t25.5 -75.5t39.5 -83h395v-174h-326q8 -50 8 -76q0 -92 -37.5 -169
t-123.5 -148q70 33 151 33q90 0 206 -35t192 -35q123 0 208 55l88 -176q-128 -96 -317 -96q-93 0 -237 39t-234 39q-133 0 -258 -68l-98 185q110 64 169.5 143t59.5 188q0 54 -18 121h-246z" />
    <glyph glyph-name="currency" unicode="&#xa4;" horiz-adv-x="1417" 
d="M219 268l113 115q-47 58 -74 133t-27 152t27.5 153.5t75.5 134.5l-113 113q17 17 42 44t40 42l119 -113q54 47 132.5 74t158.5 27q75 0 149.5 -26.5t126.5 -69.5l115 110q20 -20 48 -46t46 -44l-111 -109q97 -143 97 -286q0 -75 -27.5 -152.5t-71.5 -138.5l109 -113
l-80 -75l-110 110q-128 -106 -293 -106q-174 0 -297 104l-113 -111q-28 28 -82 78zM436 668q0 -112 73.5 -190.5t201.5 -78.5t199 81t71 192q0 108 -71 189t-197 81q-130 0 -203.5 -80.5t-73.5 -193.5z" />
    <glyph glyph-name="yen" unicode="&#xa5;" horiz-adv-x="1617" 
d="M68 1434h305l440 -529l438 529h299l-624 -723v-76h348v-148h-348v-125h348v-147h-348v-215h-230v215h-352v147h352v125h-352v148h352v76z" />
    <glyph glyph-name="brokenbar" unicode="&#xa6;" horiz-adv-x="759" 
d="M266 -102v659h228v-659h-228zM266 872v660h228v-660h-228z" />
    <glyph glyph-name="section" unicode="&#xa7;" horiz-adv-x="1386" 
d="M176 125l152 135q69 -83 156 -115t214 -32q130 0 190 42.5t60 114.5q0 69 -48 103t-163 49l-129 16q-91 12 -157.5 32t-121 56.5t-82.5 95.5t-28 140q0 121 80 207q-61 74 -61 192q0 151 123 246.5t331 95.5q311 0 467 -186l-145 -133q-100 123 -330 123
q-133 0 -185.5 -39.5t-52.5 -96.5q0 -68 57.5 -98t180.5 -45l123 -16q177 -21 273 -101.5t96 -234.5q0 -123 -72 -213q53 -74 53 -187q0 -72 -28 -135.5t-83.5 -114.5t-147.5 -80.5t-210 -29.5q-347 0 -512 209zM428 772q0 -69 57 -98.5t179 -44.5l122 -17q76 -9 148 -32
q33 36 33 90q0 68 -47.5 102t-161.5 49l-131 17q-92 10 -150 28q-49 -34 -49 -94z" />
    <glyph glyph-name="dieresis" unicode="&#xa8;" horiz-adv-x="501" 
d="M-49 1583v229h227v-229h-227zM326 1583v229h227v-229h-227z" />
    <glyph glyph-name="copyright" unicode="&#xa9;" 
d="M172 719q0 157 57.5 294.5t158.5 235.5t244 154.5t308 56.5q219 0 394 -95.5t273.5 -265t98.5 -380.5q0 -158 -57.5 -296.5t-158.5 -237.5t-244 -155.5t-308 -56.5q-163 0 -305 56t-243.5 154.5t-159.5 237t-58 298.5zM346 719q0 -121 41 -226.5t116 -184t188 -124
t249 -45.5q177 0 313 78t207.5 209.5t71.5 292.5q0 118 -42 223t-117.5 183t-188 123.5t-246.5 45.5q-176 0 -312.5 -78t-208 -208t-71.5 -289zM526 715q0 173 116.5 287t293.5 114q121 0 222 -56.5t165 -170.5l-156 -80q-92 131 -231 131q-104 0 -170 -62.5t-66 -162.5
q0 -98 65.5 -160.5t182.5 -62.5q70 0 127.5 36t95.5 99l156 -88q-141 -222 -379 -222q-188 0 -305 110t-117 288z" />
    <glyph glyph-name="ordfeminine" unicode="&#xaa;" horiz-adv-x="1003" 
d="M145 815l281 619h152l280 -619h-156l-47 109h-313l-47 -109h-150zM397 1051h203l-100 235z" />
    <glyph glyph-name="guillemotleft" unicode="&#xab;" horiz-adv-x="882" 
d="M53 549v291l318 288v-303l-174 -131l174 -131v-303zM471 549v291l317 288v-303l-174 -131l174 -131v-303z" />
    <glyph glyph-name="logicalnot" unicode="&#xac;" horiz-adv-x="1417" 
d="M158 391v211h1081v-491h-219v280h-862z" />
    <glyph glyph-name="uni00AD" unicode="&#xad;" horiz-adv-x="1026" 
d="M160 606v240h706v-240h-706z" />
    <glyph glyph-name="registered" unicode="&#xae;" horiz-adv-x="1306" 
d="M139 973q0 214 148 350.5t364 136.5q226 0 371 -136.5t145 -350.5q0 -219 -147 -356.5t-369 -137.5q-143 0 -259.5 61.5t-184.5 175t-68 257.5zM268 971q0 -164 108 -265.5t277 -101.5q174 0 280.5 101t106.5 266q0 162 -105.5 264t-281.5 102t-280.5 -102t-104.5 -264z
M475 772v410h225q71 0 118.5 -38t47.5 -102q0 -85 -78 -120l89 -150h-136l-69 125h-84v-125h-113zM588 991h86q74 0 74 56q0 45 -74 45h-86v-101z" />
    <glyph glyph-name="macron" unicode="&#xaf;" horiz-adv-x="501" 
d="M-47 1599v199h598v-199h-598z" />
    <glyph glyph-name="degree" unicode="&#xb0;" horiz-adv-x="690" 
d="M63 1184q0 122 81 199t200 77q123 0 203 -77.5t80 -198.5q0 -122 -80.5 -198.5t-202.5 -76.5q-120 0 -200.5 77t-80.5 198zM209 1184q0 -58 38 -93.5t97 -35.5q61 0 100 35.5t39 93.5q0 56 -39 94.5t-100 38.5q-59 0 -97 -38.5t-38 -94.5z" />
    <glyph glyph-name="plusminus" unicode="&#xb1;" horiz-adv-x="1417" 
d="M168 0v213h1081v-213h-1081zM168 590v205h432v188h217v-188h432v-205h-432v-201h-217v201h-432z" />
    <glyph glyph-name="acute" unicode="&#xb4;" horiz-adv-x="501" 
d="M-14 1577l209 242h321l-225 -242h-305z" />
    <glyph glyph-name="uni00B5" unicode="&#xb5;" horiz-adv-x="1417" 
d="M252 -500v1454h225v-475q0 -144 57 -214t173 -70q125 0 178 69.5t53 224.5v465h225v-954h-194v133q-44 -74 -114 -112.5t-148 -38.5q-137 0 -230 81v-563h-225z" />
    <glyph glyph-name="paragraph" unicode="&#xb6;" horiz-adv-x="1452" 
d="M156 1094q0 207 132 336t337 129h630v-170h-122v-1541h-179v1541h-184v-1541h-174v799q-118 1 -217 53t-161 155t-62 239z" />
    <glyph glyph-name="periodcentered" unicode="&#xb7;" horiz-adv-x="534" 
d="M135 606v264h264v-264h-264z" />
    <glyph glyph-name="cedilla" unicode="&#xb8;" horiz-adv-x="501" 
d="M98 -543l86 437h246l-117 -437h-215z" />
    <glyph glyph-name="ordmasculine" unicode="&#xba;" horiz-adv-x="1056" 
d="M197 1124q0 142 96 232t235 90q146 0 239 -91t93 -231q0 -143 -94 -232t-238 -89q-142 0 -236.5 89t-94.5 232zM352 1124q0 -77 47.5 -124.5t128.5 -47.5q82 0 130.5 47.5t48.5 124.5q0 74 -48.5 122t-130.5 48q-81 0 -128.5 -48t-47.5 -122z" />
    <glyph glyph-name="guillemotright" unicode="&#xbb;" horiz-adv-x="882" 
d="M94 260v303l174 131l-174 131v303l318 -288v-291zM512 260v303l174 131l-174 131v303l317 -288v-291z" />
    <glyph glyph-name="onequarter" unicode="&#xbc;" horiz-adv-x="1734" 
d="M180 -10l1147 1454h250l-1147 -1454h-250zM246 1190v158q105 17 137 86h172v-607h-178v410q-51 -40 -131 -47zM1008 106v134l311 370h160v-364h59v-140h-59v-106h-146v106h-325zM1184 246h149v184z" />
    <glyph glyph-name="onehalf" unicode="&#xbd;" horiz-adv-x="1734" 
d="M180 -10l1147 1454h250l-1147 -1454h-250zM246 1190v158q105 17 137 86h172v-607h-178v410q-51 -40 -131 -47zM1079 0v123q7 10 14.5 20t18 20.5t18.5 18t22 18.5t21.5 17t25 18.5t23.5 16.5t26.5 17.5t25.5 17.5q62 42 83 73t21 68q0 31 -18.5 48.5t-48.5 17.5
q-31 0 -52.5 -21.5t-29.5 -58.5l-139 28q20 84 79.5 135.5t153.5 51.5q98 0 156.5 -54t58.5 -135q0 -135 -203 -258l-61 -37h266v-145h-461z" />
    <glyph glyph-name="threequarters" unicode="&#xbe;" horiz-adv-x="1734" 
d="M131 979l139 55q18 -52 47 -72t80 -20q105 0 105 66q0 59 -92 59h-60v125h45q84 0 84 61q0 23 -20 39.5t-64 16.5q-47 0 -70.5 -22t-29.5 -73l-137 27q15 105 77 157t158 52q104 0 163.5 -49.5t59.5 -134.5q0 -77 -51 -121q76 -48 76 -150q0 -86 -66 -140t-180 -54
q-94 0 -160.5 40t-103.5 138zM180 -10l1147 1454h250l-1147 -1454h-250zM1008 106v134l311 370h160v-364h59v-140h-59v-106h-146v106h-325zM1184 246h149v184z" />
    <glyph glyph-name="questiondown" unicode="&#xbf;" horiz-adv-x="1306" 
d="M94 395q0 93 35.5 161.5t96.5 116t167 101.5q101 51 145.5 97.5t51.5 132.5h254q0 -143 -60 -230t-217 -166q-124 -63 -165.5 -102t-41.5 -109q0 -74 80.5 -120t218.5 -46q58 0 112 11t107 36t93.5 72.5t60.5 112.5l232 -62q-53 -192 -204.5 -296.5t-410.5 -104.5
q-133 0 -240 31.5t-175 85.5t-104 125t-36 153zM588 1204v256h258v-256h-258z" />
    <glyph glyph-name="Agrave" unicode="&#xc0;" horiz-adv-x="1660" 
d="M12 0l660 1434h317l660 -1434h-254l-144 309h-852l-141 -309h-246zM500 530h651l-326 709zM545 1819h321l209 -242h-305z" />
    <glyph glyph-name="Aacute" unicode="&#xc1;" horiz-adv-x="1660" 
d="M12 0l660 1434h317l660 -1434h-254l-144 309h-852l-141 -309h-246zM500 530h651l-326 709zM614 1577l209 242h322l-225 -242h-306z" />
    <glyph glyph-name="Acircumflex" unicode="&#xc2;" horiz-adv-x="1660" 
d="M12 0l660 1434h317l660 -1434h-254l-144 309h-852l-141 -309h-246zM387 1577l260 242h328l260 -242h-285l-139 135l-139 -135h-285zM500 530h651l-326 709z" />
    <glyph glyph-name="Atilde" unicode="&#xc3;" horiz-adv-x="1660" 
d="M12 0l660 1434h317l660 -1434h-254l-144 309h-852l-141 -309h-246zM481 1575v33q0 105 47 166t127 61q47 0 109 -27l96 -45q40 -18 68 -18q49 0 49 78h162v-33q0 -105 -47 -166t-127 -61q-50 0 -109 26l-96 45q-42 19 -68 19q-49 0 -49 -78h-162zM500 530h651l-326 709z
" />
    <glyph glyph-name="Adieresis" unicode="&#xc4;" horiz-adv-x="1660" 
d="M12 0l660 1434h317l660 -1434h-254l-144 309h-852l-141 -309h-246zM500 530h651l-326 709zM510 1583v229h227v-229h-227zM885 1583v229h227v-229h-227z" />
    <glyph glyph-name="Aring" unicode="&#xc5;" horiz-adv-x="1660" 
d="M12 0l660 1434h317l660 -1434h-254l-144 309h-852l-141 -309h-246zM500 530h651l-326 709zM598 1731q0 88 61 146t152 58t151 -58t60 -146q0 -86 -60 -144.5t-149 -58.5q-94 0 -154.5 57.5t-60.5 145.5zM735 1731q0 -31 20.5 -51.5t55.5 -20.5q32 0 53 20.5t21 51.5
t-21 51t-53 20q-34 0 -55 -20t-21 -51z" />
    <glyph glyph-name="AE" unicode="&#xc6;" horiz-adv-x="2383" 
d="M-8 0l854 1434h1321v-217h-889v-371h776v-213h-776v-418h917v-215h-1142v324h-602l-193 -324h-266zM580 541h473v792z" />
    <glyph glyph-name="Ccedilla" unicode="&#xc7;" horiz-adv-x="1742" 
d="M172 719q0 156 57.5 293.5t158.5 235.5t244 155t308 57q232 0 410 -103t268 -284l-197 -112q-65 129 -186 204.5t-293 75.5q-160 0 -285 -69.5t-191.5 -188t-66.5 -264.5q0 -110 38 -206t107 -167t172 -112t226 -41q349 0 492 309l198 -105q-82 -199 -268.5 -311.5
t-423.5 -112.5q-219 0 -394.5 95.5t-274.5 266t-99 384.5zM709 -543l86 437h245l-116 -437h-215z" />
    <glyph glyph-name="Egrave" unicode="&#xc8;" horiz-adv-x="1617" 
d="M266 0v1434h1135v-217h-909v-371h796v-213h-796v-418h938v-215h-1164zM514 1819h322l208 -242h-305z" />
    <glyph glyph-name="Eacute" unicode="&#xc9;" horiz-adv-x="1617" 
d="M266 0v1434h1135v-217h-909v-371h796v-213h-796v-418h938v-215h-1164zM641 1577l209 242h321l-225 -242h-305z" />
    <glyph glyph-name="Ecircumflex" unicode="&#xca;" horiz-adv-x="1617" 
d="M266 0v1434h1135v-217h-909v-371h796v-213h-796v-418h938v-215h-1164zM430 1577l260 242h328l260 -242h-285l-139 135l-139 -135h-285z" />
    <glyph glyph-name="Edieresis" unicode="&#xcb;" horiz-adv-x="1617" 
d="M266 0v1434h1135v-217h-909v-371h796v-213h-796v-418h938v-215h-1164zM575 1583v229h228v-229h-228zM950 1583v229h228v-229h-228z" />
    <glyph glyph-name="Igrave" unicode="&#xcc;" horiz-adv-x="774" 
d="M35 1819h321l209 -242h-305zM266 0v1434h242v-1434h-242z" />
    <glyph glyph-name="Iacute" unicode="&#xcd;" horiz-adv-x="774" 
d="M197 1577l209 242h321l-225 -242h-305zM266 0v1434h242v-1434h-242z" />
    <glyph glyph-name="Icircumflex" unicode="&#xce;" horiz-adv-x="774" 
d="M-37 1577l260 242h328l260 -242h-285l-139 135l-139 -135h-285zM266 0v1434h242v-1434h-242z" />
    <glyph glyph-name="Idieresis" unicode="&#xcf;" horiz-adv-x="774" 
d="M86 1583v229h227v-229h-227zM266 0v1434h242v-1434h-242zM461 1583v229h227v-229h-227z" />
    <glyph glyph-name="Eth" unicode="&#xd0;" horiz-adv-x="1814" 
d="M168 606v232h98v596h623q246 0 416 -101q159 -91 248 -254.5t89 -365.5q0 -218 -101 -386t-279 -253q-154 -74 -340 -74h-656v606h-98zM494 217h417q153 0 279 74q106 64 165.5 172.5t59.5 247.5q0 144 -57.5 257t-165.5 177q-120 69 -291 69h-407v-376h380v-232h-380
v-389z" />
    <glyph glyph-name="Ntilde" unicode="&#xd1;" horiz-adv-x="1880" 
d="M266 0v1434h277l846 -1012v1012h225v-1434h-162l-960 1149v-1149h-226zM621 1575v33q0 105 47 166t127 61q47 0 108 -27l96 -45q40 -18 68 -18q49 0 49 78h162v-33q0 -105 -47 -166t-127 -61q-50 0 -109 26l-96 45q-42 19 -68 19q-49 0 -49 -78h-161z" />
    <glyph glyph-name="Ograve" unicode="&#xd2;" 
d="M172 719q0 157 57.5 294.5t158.5 235.5t244 154.5t308 56.5q219 0 394 -95.5t273.5 -265t98.5 -380.5q0 -158 -57.5 -296.5t-158.5 -237.5t-244 -155.5t-308 -56.5q-163 0 -305 56t-243.5 154.5t-159.5 237t-58 298.5zM399 719q0 -110 37.5 -206t106 -167t171 -112
t226.5 -41q161 0 285 70.5t189 189.5t65 266q0 144 -65 262t-189.5 189t-286.5 71q-161 0 -285 -70.5t-189 -188.5t-65 -263zM592 1819h321l209 -242h-305z" />
    <glyph glyph-name="Oacute" unicode="&#xd3;" 
d="M172 719q0 157 57.5 294.5t158.5 235.5t244 154.5t308 56.5q219 0 394 -95.5t273.5 -265t98.5 -380.5q0 -158 -57.5 -296.5t-158.5 -237.5t-244 -155.5t-308 -56.5q-163 0 -305 56t-243.5 154.5t-159.5 237t-58 298.5zM399 719q0 -110 37.5 -206t106 -167t171 -112
t226.5 -41q161 0 285 70.5t189 189.5t65 266q0 144 -65 262t-189.5 189t-286.5 71q-161 0 -285 -70.5t-189 -188.5t-65 -263zM713 1577l209 242h321l-225 -242h-305z" />
    <glyph glyph-name="Ocircumflex" unicode="&#xd4;" 
d="M172 719q0 157 57.5 294.5t158.5 235.5t244 154.5t308 56.5q219 0 394 -95.5t273.5 -265t98.5 -380.5q0 -158 -57.5 -296.5t-158.5 -237.5t-244 -155.5t-308 -56.5q-163 0 -305 56t-243.5 154.5t-159.5 237t-58 298.5zM399 719q0 -110 37.5 -206t106 -167t171 -112
t226.5 -41q161 0 285 70.5t189 189.5t65 266q0 144 -65 262t-189.5 189t-286.5 71q-161 0 -285 -70.5t-189 -188.5t-65 -263zM514 1577l260 242h328l260 -242h-285l-139 135l-139 -135h-285z" />
    <glyph glyph-name="Otilde" unicode="&#xd5;" 
d="M172 719q0 157 57.5 294.5t158.5 235.5t244 154.5t308 56.5q219 0 394 -95.5t273.5 -265t98.5 -380.5q0 -158 -57.5 -296.5t-158.5 -237.5t-244 -155.5t-308 -56.5q-163 0 -305 56t-243.5 154.5t-159.5 237t-58 298.5zM399 719q0 -110 37.5 -206t106 -167t171 -112
t226.5 -41q161 0 285 70.5t189 189.5t65 266q0 144 -65 262t-189.5 189t-286.5 71q-161 0 -285 -70.5t-189 -188.5t-65 -263zM610 1575v33q0 105 47 166t127 61q48 0 109 -27l96 -45q40 -18 68 -18q49 0 49 78h162v-33q0 -105 -47 -166t-127 -61q-50 0 -109 26l-96 45
q-42 19 -68 19q-49 0 -49 -78h-162z" />
    <glyph glyph-name="Odieresis" unicode="&#xd6;" 
d="M172 719q0 157 57.5 294.5t158.5 235.5t244 154.5t308 56.5q219 0 394 -95.5t273.5 -265t98.5 -380.5q0 -158 -57.5 -296.5t-158.5 -237.5t-244 -155.5t-308 -56.5q-163 0 -305 56t-243.5 154.5t-159.5 237t-58 298.5zM399 719q0 -110 37.5 -206t106 -167t171 -112
t226.5 -41q161 0 285 70.5t189 189.5t65 266q0 144 -65 262t-189.5 189t-286.5 71q-161 0 -285 -70.5t-189 -188.5t-65 -263zM637 1583v229h227v-229h-227zM1012 1583v229h227v-229h-227z" />
    <glyph glyph-name="multiply" unicode="&#xd7;" horiz-adv-x="1417" 
d="M283 213l282 283l-282 278l145 144l281 -281l278 281l143 -144l-280 -278l283 -283l-146 -143l-280 280l-279 -280z" />
    <glyph glyph-name="Oslash" unicode="&#xd8;" 
d="M172 719q0 157 57.5 294.5t158.5 235.5t244 154.5t308 56.5q183 0 344 -71l78 110h248l-154 -219q119 -101 184.5 -246t65.5 -315q0 -158 -57.5 -296.5t-158.5 -237.5t-244 -155.5t-308 -56.5q-190 0 -346 72l-78 -113h-248l156 222q-119 101 -184.5 247t-65.5 318z
M383 719q0 -241 158 -393l622 891q-98 40 -225 40q-166 0 -293.5 -72.5t-194.5 -194.5t-67 -271zM713 215q103 -39 227 -39q166 0 293.5 73t194.5 196t67 274q0 113 -41.5 213t-118.5 174z" />
    <glyph glyph-name="Ugrave" unicode="&#xd9;" horiz-adv-x="1824" 
d="M252 686v748h229v-740q0 -146 19 -221q34 -138 128.5 -207t282.5 -69q189 0 284.5 68.5t129.5 205.5q18 81 18 223v740h230v-748q0 -197 -41 -321q-131 -392 -621 -392q-494 0 -624 398q-35 111 -35 315zM578 1819h321l209 -242h-305z" />
    <glyph glyph-name="Uacute" unicode="&#xda;" horiz-adv-x="1824" 
d="M252 686v748h229v-740q0 -146 19 -221q34 -138 128.5 -207t282.5 -69q189 0 284.5 68.5t129.5 205.5q18 81 18 223v740h230v-748q0 -197 -41 -321q-131 -392 -621 -392q-494 0 -624 398q-35 111 -35 315zM713 1577l209 242h321l-225 -242h-305z" />
    <glyph glyph-name="Ucircumflex" unicode="&#xdb;" horiz-adv-x="1824" 
d="M252 686v748h229v-740q0 -146 19 -221q34 -138 128.5 -207t282.5 -69q189 0 284.5 68.5t129.5 205.5q18 81 18 223v740h230v-748q0 -197 -41 -321q-131 -392 -621 -392q-494 0 -624 398q-35 111 -35 315zM487 1577l261 242h327l260 -242h-284l-140 135l-139 -135h-285z
" />
    <glyph glyph-name="Udieresis" unicode="&#xdc;" horiz-adv-x="1824" 
d="M252 686v748h229v-740q0 -146 19 -221q34 -138 128.5 -207t282.5 -69q189 0 284.5 68.5t129.5 205.5q18 81 18 223v740h230v-748q0 -197 -41 -321q-131 -392 -621 -392q-494 0 -624 398q-35 111 -35 315zM610 1583v229h228v-229h-228zM985 1583v229h227v-229h-227z" />
    <glyph glyph-name="Yacute" unicode="&#xdd;" horiz-adv-x="1583" 
d="M29 1434h305l461 -539l458 539h299l-645 -754v-680h-229v680zM606 1577l209 242h322l-226 -242h-305z" />
    <glyph glyph-name="Thorn" unicode="&#xde;" horiz-adv-x="1638" 
d="M266 0v1434h226v-160h509q150 0 244 -31q143 -50 219 -161t76 -269q0 -117 -40 -206t-113 -143.5t-168.5 -82t-212.5 -27.5h-514v-354h-226zM492 569h493q106 0 162 19q168 49 168 221q0 188 -160 231q-67 17 -184 17h-479v-488z" />
    <glyph glyph-name="germandbls" unicode="&#xdf;" horiz-adv-x="3100" 
d="M158 217l178 150q80 -101 202 -140t289 -39q169 0 265 60t96 166q0 35 -10.5 63.5t-26 48t-44 35t-51.5 24.5t-63 16.5t-65.5 11t-69.5 8.5l-147 18q-87 10 -153 25t-135 44.5t-113.5 70.5t-72.5 107t-28 152q0 190 159 306t431 116q380 0 594 -217l-172 -149
q-72 79 -175 114t-262 35q-166 0 -256 -54t-90 -136q0 -39 12 -65.5t45 -51.5t99 -42.5t168 -29.5l180 -22q104 -13 183.5 -38.5t148.5 -71t106 -121t37 -177.5q0 -92 -29.5 -168t-83 -130t-128.5 -91t-166.5 -54.5t-196.5 -17.5q-447 0 -655 244zM1698 217l178 150
q80 -101 202 -140t289 -39q169 0 265 60t96 166q0 35 -10.5 63.5t-26 48t-44 35t-51.5 24.5t-63 16.5t-65.5 11t-69.5 8.5l-147 18q-87 10 -153 25t-135 44.5t-113.5 70.5t-72.5 107t-28 152q0 190 159 306t431 116q380 0 594 -217l-172 -149q-72 79 -175 114t-262 35
q-166 0 -256 -54t-90 -136q0 -39 12 -65.5t45 -51.5t99 -42.5t168 -29.5l180 -22q104 -13 183.5 -38.5t148.5 -71t106 -121t37 -177.5q0 -92 -29.5 -168t-83 -130t-128.5 -91t-166.5 -54.5t-196.5 -17.5q-447 0 -655 244z" />
    <glyph glyph-name="agrave" unicode="&#xe0;" horiz-adv-x="1660" 
d="M12 0l660 1434h317l660 -1434h-254l-144 309h-852l-141 -309h-246zM500 530h651l-326 709zM545 1819h321l209 -242h-305z" />
    <glyph glyph-name="aacute" unicode="&#xe1;" horiz-adv-x="1660" 
d="M12 0l660 1434h317l660 -1434h-254l-144 309h-852l-141 -309h-246zM500 530h651l-326 709zM614 1577l209 242h322l-225 -242h-306z" />
    <glyph glyph-name="acircumflex" unicode="&#xe2;" horiz-adv-x="1660" 
d="M12 0l660 1434h317l660 -1434h-254l-144 309h-852l-141 -309h-246zM387 1577l260 242h328l260 -242h-285l-139 135l-139 -135h-285zM500 530h651l-326 709z" />
    <glyph glyph-name="atilde" unicode="&#xe3;" horiz-adv-x="1660" 
d="M12 0l660 1434h317l660 -1434h-254l-144 309h-852l-141 -309h-246zM481 1575v33q0 105 47 166t127 61q47 0 109 -27l96 -45q40 -18 68 -18q49 0 49 78h162v-33q0 -105 -47 -166t-127 -61q-50 0 -109 26l-96 45q-42 19 -68 19q-49 0 -49 -78h-162zM500 530h651l-326 709z
" />
    <glyph glyph-name="adieresis" unicode="&#xe4;" horiz-adv-x="1660" 
d="M12 0l660 1434h317l660 -1434h-254l-144 309h-852l-141 -309h-246zM500 530h651l-326 709zM510 1583v229h227v-229h-227zM885 1583v229h227v-229h-227z" />
    <glyph glyph-name="aring" unicode="&#xe5;" horiz-adv-x="1660" 
d="M12 0l660 1434h317l660 -1434h-254l-144 309h-852l-141 -309h-246zM500 530h651l-326 709zM598 1731q0 88 61 146t152 58t151 -58t60 -146q0 -86 -60 -144.5t-149 -58.5q-94 0 -154.5 57.5t-60.5 145.5zM735 1731q0 -31 20.5 -51.5t55.5 -20.5q32 0 53 20.5t21 51.5
t-21 51t-53 20q-34 0 -55 -20t-21 -51z" />
    <glyph glyph-name="ae" unicode="&#xe6;" horiz-adv-x="2383" 
d="M-8 0l854 1434h1321v-217h-889v-371h776v-213h-776v-418h917v-215h-1142v324h-602l-193 -324h-266zM580 541h473v792z" />
    <glyph glyph-name="ccedilla" unicode="&#xe7;" horiz-adv-x="1742" 
d="M172 719q0 156 57.5 293.5t158.5 235.5t244 155t308 57q232 0 410 -103t268 -284l-197 -112q-65 129 -186 204.5t-293 75.5q-160 0 -285 -69.5t-191.5 -188t-66.5 -264.5q0 -110 38 -206t107 -167t172 -112t226 -41q349 0 492 309l198 -105q-82 -199 -268.5 -311.5
t-423.5 -112.5q-219 0 -394.5 95.5t-274.5 266t-99 384.5zM727 -543l86 437h246l-117 -437h-215z" />
    <glyph glyph-name="egrave" unicode="&#xe8;" horiz-adv-x="1617" 
d="M266 0v1434h1135v-217h-909v-371h796v-213h-796v-418h938v-215h-1164zM514 1819h322l208 -242h-305z" />
    <glyph glyph-name="eacute" unicode="&#xe9;" horiz-adv-x="1617" 
d="M266 0v1434h1135v-217h-909v-371h796v-213h-796v-418h938v-215h-1164zM631 1577l209 242h321l-225 -242h-305z" />
    <glyph glyph-name="ecircumflex" unicode="&#xea;" horiz-adv-x="1617" 
d="M266 0v1434h1135v-217h-909v-371h796v-213h-796v-418h938v-215h-1164zM430 1577l260 242h328l260 -242h-285l-139 135l-139 -135h-285z" />
    <glyph glyph-name="edieresis" unicode="&#xeb;" horiz-adv-x="1617" 
d="M266 0v1434h1135v-217h-909v-371h796v-213h-796v-418h938v-215h-1164zM575 1583v229h228v-229h-228zM950 1583v229h228v-229h-228z" />
    <glyph glyph-name="igrave" unicode="&#xec;" horiz-adv-x="774" 
d="M35 1819h321l209 -242h-305zM266 0v1434h242v-1434h-242z" />
    <glyph glyph-name="iacute" unicode="&#xed;" horiz-adv-x="774" 
d="M197 1577l209 242h321l-225 -242h-305zM266 0v1434h242v-1434h-242z" />
    <glyph glyph-name="icircumflex" unicode="&#xee;" horiz-adv-x="774" 
d="M-37 1577l260 242h328l260 -242h-285l-139 135l-139 -135h-285zM266 0v1434h242v-1434h-242z" />
    <glyph glyph-name="idieresis" unicode="&#xef;" horiz-adv-x="774" 
d="M86 1583v229h227v-229h-227zM266 0v1434h242v-1434h-242zM461 1583v229h227v-229h-227z" />
    <glyph glyph-name="eth" unicode="&#xf0;" horiz-adv-x="1814" 
d="M168 606v232h98v596h623q246 0 416 -101q159 -91 248 -254.5t89 -365.5q0 -218 -101 -386t-279 -253q-154 -74 -340 -74h-656v606h-98zM494 217h417q153 0 279 74q106 64 165.5 172.5t59.5 247.5q0 144 -57.5 257t-165.5 177q-120 69 -291 69h-407v-376h380v-232h-380
v-389z" />
    <glyph glyph-name="ntilde" unicode="&#xf1;" horiz-adv-x="1880" 
d="M266 0v1434h277l846 -1012v1012h225v-1434h-162l-960 1149v-1149h-226zM621 1575v33q0 105 47 166t127 61q47 0 108 -27l96 -45q40 -18 68 -18q49 0 49 78h162v-33q0 -105 -47 -166t-127 -61q-50 0 -109 26l-96 45q-42 19 -68 19q-49 0 -49 -78h-161z" />
    <glyph glyph-name="ograve" unicode="&#xf2;" 
d="M172 719q0 157 57.5 294.5t158.5 235.5t244 154.5t308 56.5q219 0 394 -95.5t273.5 -265t98.5 -380.5q0 -158 -57.5 -296.5t-158.5 -237.5t-244 -155.5t-308 -56.5q-163 0 -305 56t-243.5 154.5t-159.5 237t-58 298.5zM399 719q0 -110 37.5 -206t106 -167t171 -112
t226.5 -41q161 0 285 70.5t189 189.5t65 266q0 144 -65 262t-189.5 189t-286.5 71q-161 0 -285 -70.5t-189 -188.5t-65 -263zM592 1819h321l209 -242h-305z" />
    <glyph glyph-name="oacute" unicode="&#xf3;" 
d="M172 719q0 157 57.5 294.5t158.5 235.5t244 154.5t308 56.5q219 0 394 -95.5t273.5 -265t98.5 -380.5q0 -158 -57.5 -296.5t-158.5 -237.5t-244 -155.5t-308 -56.5q-163 0 -305 56t-243.5 154.5t-159.5 237t-58 298.5zM399 719q0 -110 37.5 -206t106 -167t171 -112
t226.5 -41q161 0 285 70.5t189 189.5t65 266q0 144 -65 262t-189.5 189t-286.5 71q-161 0 -285 -70.5t-189 -188.5t-65 -263zM713 1577l209 242h321l-225 -242h-305z" />
    <glyph glyph-name="ocircumflex" unicode="&#xf4;" 
d="M172 719q0 157 57.5 294.5t158.5 235.5t244 154.5t308 56.5q219 0 394 -95.5t273.5 -265t98.5 -380.5q0 -158 -57.5 -296.5t-158.5 -237.5t-244 -155.5t-308 -56.5q-163 0 -305 56t-243.5 154.5t-159.5 237t-58 298.5zM399 719q0 -110 37.5 -206t106 -167t171 -112
t226.5 -41q161 0 285 70.5t189 189.5t65 266q0 144 -65 262t-189.5 189t-286.5 71q-161 0 -285 -70.5t-189 -188.5t-65 -263zM514 1577l260 242h328l260 -242h-285l-139 135l-139 -135h-285z" />
    <glyph glyph-name="otilde" unicode="&#xf5;" 
d="M172 719q0 157 57.5 294.5t158.5 235.5t244 154.5t308 56.5q219 0 394 -95.5t273.5 -265t98.5 -380.5q0 -158 -57.5 -296.5t-158.5 -237.5t-244 -155.5t-308 -56.5q-163 0 -305 56t-243.5 154.5t-159.5 237t-58 298.5zM399 719q0 -110 37.5 -206t106 -167t171 -112
t226.5 -41q161 0 285 70.5t189 189.5t65 266q0 144 -65 262t-189.5 189t-286.5 71q-161 0 -285 -70.5t-189 -188.5t-65 -263zM610 1575v33q0 105 47 166t127 61q48 0 109 -27l96 -45q40 -18 68 -18q49 0 49 78h162v-33q0 -105 -47 -166t-127 -61q-50 0 -109 26l-96 45
q-42 19 -68 19q-49 0 -49 -78h-162z" />
    <glyph glyph-name="odieresis" unicode="&#xf6;" 
d="M172 719q0 157 57.5 294.5t158.5 235.5t244 154.5t308 56.5q219 0 394 -95.5t273.5 -265t98.5 -380.5q0 -158 -57.5 -296.5t-158.5 -237.5t-244 -155.5t-308 -56.5q-163 0 -305 56t-243.5 154.5t-159.5 237t-58 298.5zM399 719q0 -110 37.5 -206t106 -167t171 -112
t226.5 -41q161 0 285 70.5t189 189.5t65 266q0 144 -65 262t-189.5 189t-286.5 71q-161 0 -285 -70.5t-189 -188.5t-65 -263zM637 1583v229h227v-229h-227zM1012 1583v229h227v-229h-227z" />
    <glyph glyph-name="divide" unicode="&#xf7;" horiz-adv-x="1417" 
d="M168 389v215h1081v-215h-1081zM557 84q0 62 43.5 104.5t108.5 42.5q66 0 109.5 -42.5t43.5 -104.5t-43.5 -104.5t-109.5 -42.5q-65 0 -108.5 42.5t-43.5 104.5zM557 909q0 62 43.5 105t108.5 43t109 -43t44 -105t-43.5 -104.5t-109.5 -42.5q-65 0 -108.5 42.5
t-43.5 104.5z" />
    <glyph glyph-name="oslash" unicode="&#xf8;" 
d="M172 719q0 157 57.5 294.5t158.5 235.5t244 154.5t308 56.5q183 0 344 -71l78 110h248l-154 -219q119 -101 184.5 -246t65.5 -315q0 -158 -57.5 -296.5t-158.5 -237.5t-244 -155.5t-308 -56.5q-190 0 -346 72l-78 -113h-248l156 222q-119 101 -184.5 247t-65.5 318z
M383 719q0 -241 158 -393l622 891q-98 40 -225 40q-166 0 -293.5 -72.5t-194.5 -194.5t-67 -271zM713 215q103 -39 227 -39q166 0 293.5 73t194.5 196t67 274q0 113 -41.5 213t-118.5 174z" />
    <glyph glyph-name="ugrave" unicode="&#xf9;" horiz-adv-x="1824" 
d="M252 686v748h229v-740q0 -146 19 -221q34 -138 128.5 -207t282.5 -69q189 0 284.5 68.5t129.5 205.5q18 81 18 223v740h230v-748q0 -197 -41 -321q-131 -392 -621 -392q-494 0 -624 398q-35 111 -35 315zM578 1819h321l209 -242h-305z" />
    <glyph glyph-name="uacute" unicode="&#xfa;" horiz-adv-x="1824" 
d="M252 686v748h229v-740q0 -146 19 -221q34 -138 128.5 -207t282.5 -69q189 0 284.5 68.5t129.5 205.5q18 81 18 223v740h230v-748q0 -197 -41 -321q-131 -392 -621 -392q-494 0 -624 398q-35 111 -35 315zM713 1577l209 242h321l-225 -242h-305z" />
    <glyph glyph-name="ucircumflex" unicode="&#xfb;" horiz-adv-x="1824" 
d="M252 686v748h229v-740q0 -146 19 -221q34 -138 128.5 -207t282.5 -69q189 0 284.5 68.5t129.5 205.5q18 81 18 223v740h230v-748q0 -197 -41 -321q-131 -392 -621 -392q-494 0 -624 398q-35 111 -35 315zM487 1577l261 242h327l260 -242h-284l-140 135l-139 -135h-285z
" />
    <glyph glyph-name="udieresis" unicode="&#xfc;" horiz-adv-x="1824" 
d="M252 686v748h229v-740q0 -146 19 -221q34 -138 128.5 -207t282.5 -69q189 0 284.5 68.5t129.5 205.5q18 81 18 223v740h230v-748q0 -197 -41 -321q-131 -392 -621 -392q-494 0 -624 398q-35 111 -35 315zM610 1583v229h228v-229h-228zM985 1583v229h227v-229h-227z" />
    <glyph glyph-name="yacute" unicode="&#xfd;" horiz-adv-x="1583" 
d="M29 1434h305l461 -539l458 539h299l-645 -754v-680h-229v680zM606 1577l209 242h322l-226 -242h-305z" />
    <glyph glyph-name="thorn" unicode="&#xfe;" horiz-adv-x="1638" 
d="M266 0v1434h226v-160h509q150 0 244 -31q143 -50 219 -161t76 -269q0 -117 -40 -206t-113 -143.5t-168.5 -82t-212.5 -27.5h-514v-354h-226zM492 569h493q106 0 162 19q168 49 168 221q0 188 -160 231q-67 17 -184 17h-479v-488z" />
    <glyph glyph-name="ydieresis" unicode="&#xff;" horiz-adv-x="1583" 
d="M29 1434h305l461 -539l458 539h299l-645 -754v-680h-229v680zM489 1583v229h228v-229h-228zM864 1583v229h228v-229h-228z" />
    <glyph glyph-name="OE" unicode="&#x152;" horiz-adv-x="2592" 
d="M172 719q0 158 58.5 294.5t164.5 235t261 155t341 56.5q145 0 265 -26h1114v-217h-889v-371h776v-213h-776v-418h917v-215h-1142q-104 -27 -265 -27q-187 0 -342 56t-260.5 155t-164 236.5t-58.5 298.5zM399 719q0 -111 37.5 -206t109 -166.5t183.5 -112.5t252 -41
q178 0 281 45v960q-99 43 -277 43q-138 0 -250 -41t-185 -112t-112 -165.5t-39 -203.5z" />
    <glyph glyph-name="oe" unicode="&#x153;" horiz-adv-x="2592" 
d="M172 719q0 158 58.5 294.5t164.5 235t261 155t341 56.5q145 0 265 -26h1114v-217h-889v-371h776v-213h-776v-418h917v-215h-1142q-104 -27 -265 -27q-187 0 -342 56t-260.5 155t-164 236.5t-58.5 298.5zM399 719q0 -111 37.5 -206t109 -166.5t183.5 -112.5t252 -41
q178 0 281 45v960q-99 43 -277 43q-138 0 -250 -41t-185 -112t-112 -165.5t-39 -203.5z" />
    <glyph glyph-name="Ydieresis" unicode="&#x178;" horiz-adv-x="1583" 
d="M29 1434h305l461 -539l458 539h299l-645 -754v-680h-229v680zM489 1583v229h228v-229h-228zM864 1583v229h228v-229h-228z" />
    <glyph glyph-name="circumflex" unicode="&#x2c6;" horiz-adv-x="501" 
d="M-172 1577l260 242h328l260 -242h-285l-139 135l-139 -135h-285z" />
    <glyph glyph-name="tilde" unicode="&#x2dc;" horiz-adv-x="501" 
d="M-78 1575v33q0 105 47 166t127 61q48 0 109 -27l96 -45q40 -18 68 -18q49 0 49 78h162v-33q0 -105 -47 -166t-127 -61q-50 0 -109 26l-96 45q-42 19 -68 19q-49 0 -49 -78h-162z" />
    <glyph glyph-name="uni2000" unicode="&#x2000;" horiz-adv-x="967" 
 />
    <glyph glyph-name="uni2001" unicode="&#x2001;" horiz-adv-x="1935" 
 />
    <glyph glyph-name="uni2002" unicode="&#x2002;" horiz-adv-x="967" 
 />
    <glyph glyph-name="uni2003" unicode="&#x2003;" horiz-adv-x="1935" 
 />
    <glyph glyph-name="uni2004" unicode="&#x2004;" horiz-adv-x="645" 
 />
    <glyph glyph-name="uni2005" unicode="&#x2005;" horiz-adv-x="483" 
 />
    <glyph glyph-name="uni2006" unicode="&#x2006;" horiz-adv-x="322" 
 />
    <glyph glyph-name="uni2007" unicode="&#x2007;" horiz-adv-x="322" 
 />
    <glyph glyph-name="uni2008" unicode="&#x2008;" horiz-adv-x="241" 
 />
    <glyph glyph-name="uni2009" unicode="&#x2009;" horiz-adv-x="387" 
 />
    <glyph glyph-name="uni200A" unicode="&#x200a;" horiz-adv-x="107" 
 />
    <glyph glyph-name="uni2010" unicode="&#x2010;" horiz-adv-x="1026" 
d="M160 606v240h706v-240h-706z" />
    <glyph glyph-name="uni2011" unicode="&#x2011;" horiz-adv-x="1026" 
d="M160 606v240h706v-240h-706z" />
    <glyph glyph-name="figuredash" unicode="&#x2012;" horiz-adv-x="1026" 
d="M160 606v240h706v-240h-706z" />
    <glyph glyph-name="endash" unicode="&#x2013;" horiz-adv-x="1292" 
d="M160 606v240h973v-240h-973z" />
    <glyph glyph-name="emdash" unicode="&#x2014;" horiz-adv-x="1447" 
d="M160 606v240h1128v-240h-1128z" />
    <glyph glyph-name="quoteleft" unicode="&#x2018;" horiz-adv-x="679" 
d="M100 1434h269l204 -525h-235z" />
    <glyph glyph-name="quoteright" unicode="&#x2019;" horiz-adv-x="679" 
d="M106 909l205 525h269l-238 -525h-236z" />
    <glyph glyph-name="quotesinglbase" unicode="&#x201a;" horiz-adv-x="681" 
d="M76 -215l205 524h268l-238 -524h-235z" />
    <glyph glyph-name="quotedblleft" unicode="&#x201c;" horiz-adv-x="1140" 
d="M100 1434h269l204 -525h-235zM561 1434h268l205 -525h-235z" />
    <glyph glyph-name="quotedblright" unicode="&#x201d;" horiz-adv-x="1140" 
d="M106 909l205 525h269l-238 -525h-236zM567 909l205 525h268l-237 -525h-236z" />
    <glyph glyph-name="quotedblbase" unicode="&#x201e;" horiz-adv-x="1142" 
d="M76 -215l205 524h268l-238 -524h-235zM537 -215l204 524h269l-238 -524h-235z" />
    <glyph glyph-name="bullet" unicode="&#x2022;" horiz-adv-x="606" 
d="M66 725q0 100 67.5 168t169.5 68t170 -68t68 -168q0 -102 -68 -170t-170 -68t-169.5 68t-67.5 170z" />
    <glyph glyph-name="ellipsis" unicode="&#x2026;" horiz-adv-x="1435" 
d="M145 0v264h265v-264h-265zM586 0v264h264v-264h-264zM1026 0v264h264v-264h-264z" />
    <glyph glyph-name="uni202F" unicode="&#x202f;" horiz-adv-x="387" 
 />
    <glyph glyph-name="guilsinglleft" unicode="&#x2039;" horiz-adv-x="464" 
d="M53 549v291l318 288v-303l-174 -131l174 -131v-303z" />
    <glyph glyph-name="guilsinglright" unicode="&#x203a;" horiz-adv-x="464" 
d="M94 260v303l174 131l-174 131v303l318 -288v-291z" />
    <glyph glyph-name="uni205F" unicode="&#x205f;" horiz-adv-x="483" 
 />
    <glyph glyph-name="Euro" unicode="&#x20ac;" horiz-adv-x="1800" 
d="M123 504v158h108q-2 18 -2 57q0 42 2 65h-108v156h137q67 235 260.5 377.5t462.5 142.5q231 0 407.5 -102.5t266.5 -284.5l-197 -112q-66 130 -185 206t-290 76q-176 0 -306 -82t-190 -221h533v-156h-576q-2 -23 -2 -65q0 -39 2 -57h576v-158h-537q59 -144 189 -229
t311 -85q344 0 488 312l198 -105q-83 -199 -267 -311.5t-421 -112.5q-272 0 -467 144.5t-260 386.5h-133z" />
    <glyph glyph-name="trademark" unicode="&#x2122;" horiz-adv-x="1806" 
d="M125 1300v134h582v-134h-224v-485h-139v485h-219zM850 815v619h197l186 -422l186 422h189v-619h-125v451l-199 -451h-108l-201 451v-451h-125z" />
    <glyph glyph-name="uni25FC" unicode="&#x25fc;" horiz-adv-x="1433" 
d="M0 0v1434h1434v-1434h-1434z" />
    <glyph glyph-name="uniFB01" unicode="&#xfb01;" horiz-adv-x="2205" 
d="M266 0v1434h1114v-220h-888v-403h774v-219h-774v-592h-226zM1698 0v1434h241v-1434h-241z" />
    <glyph glyph-name="uniFB02" unicode="&#xfb02;" horiz-adv-x="2816" 
d="M266 0v1434h1114v-220h-888v-403h774v-219h-774v-592h-226zM1698 0v1434h229v-1211h848v-223h-1077z" />
    </font>
</defs>
</svg>
